<?xml version="1.0" encoding="utf-8"?>
<!-- Generator: Adobe Illustrator 13.0.0, SVG Export Plug-In . SVG Version: 6.00 Build 14948)  -->
<!DOCTYPE svg PUBLIC "-//W3C//DTD SVG 1.1//EN" "http://www.w3.org/Graphics/SVG/1.1/DTD/svg11.dtd">
<svg version="1.1" id="Default" xmlns="http://www.w3.org/2000/svg" xmlns:xlink="http://www.w3.org/1999/xlink" x="0px" y="0px"
	 width="1974.998px" height="1975.002px" viewBox="0 0 1974.998 1975.002" enable-background="new 0 0 1974.998 1975.002"
	 xml:space="preserve">
<g>
	<g id="XMLID_1_">
		<g>
			<path fill="#6F82C0" d="M1219.002,28.278c529.786,127.867,855.59,660.944,727.723,1190.73s-661.033,855.589-1190.729,727.723
				C226.209,1818.774-99.595,1285.698,28.272,755.911C156.139,226.124,689.305-99.59,1219.002,28.278z M1872.654,987.459
				c0-488.794-396.317-885.111-885.111-885.111c-488.883,0-885.2,396.317-885.2,885.111c0,488.883,396.317,885.111,885.2,885.111
				C1476.337,1872.571,1872.654,1476.343,1872.654,987.459z"/>
			<polygon fill="#39456D" points="1300.188,403.965 1664.492,1042.323 1203.441,1613.724 722.206,1487.724 301.524,933.396 
				753.594,966.652 			"/>
			<path d="M987.543,102.348c488.794,0,885.111,396.317,885.111,885.111c0,488.883-396.317,885.111-885.111,885.111
				c-488.883,0-885.2-396.229-885.2-885.111C102.343,498.665,498.66,102.348,987.543,102.348z M1664.492,1042.323l-364.307-638.358
				l-495.195,52.02L301.524,933.396l420.681,554.328l481.236,126L1664.492,1042.323z"/>
			<polygon fill="#6FCCDD" points="1300.188,403.965 753.594,966.652 301.524,933.396 804.99,455.984 			"/>
		</g>
		<g>
			<path fill="none" d="M102.343,987.459c0,488.883,396.317,885.111,885.2,885.111c488.794,0,885.111-396.229,885.111-885.111
				c0-488.794-396.317-885.111-885.111-885.111C498.66,102.348,102.343,498.665,102.343,987.459z"/>
			<polyline fill="none" points="301.524,933.396 753.594,966.652 1300.188,403.965 			"/>
			<polygon fill="none" points="301.524,933.396 804.99,455.984 1300.188,403.965 1664.492,1042.323 1203.441,1613.724 
				722.206,1487.724 			"/>
			<path fill="none" d="M28.272,755.911C-99.595,1285.698,226.209,1818.774,755.995,1946.73
				c529.697,127.866,1062.862-197.937,1190.729-727.723c127.867-529.785-197.936-1062.863-727.723-1190.73
				C689.305-99.59,156.14,226.125,28.272,755.911z"/>
		</g>
	</g>
</g>
</svg>
