<?xml version="1.0" encoding="utf-8"?>
<!-- Generator: Adobe Illustrator 13.0.0, SVG Export Plug-In . SVG Version: 6.00 Build 14948)  -->
<!DOCTYPE svg PUBLIC "-//W3C//DTD SVG 1.1//EN" "http://www.w3.org/Graphics/SVG/1.1/DTD/svg11.dtd">
<svg version="1.1" id="Default" xmlns="http://www.w3.org/2000/svg" xmlns:xlink="http://www.w3.org/1999/xlink" x="0px" y="0px"
	 width="2334.861px" height="2334.861px" viewBox="0 0 2334.861 2334.861" enable-background="new 0 0 2334.861 2334.861"
	 xml:space="preserve">
<g>
	<g id="XMLID_1_">
		<g>
			<path d="M1167.431,0.25c644.61,0,1167.181,522.559,1167.181,1167.181c0,644.609-522.57,1167.181-1167.181,1167.181
				C522.81,2334.611,0.25,1812.04,0.25,1167.431C0.25,522.809,522.81,0.25,1167.431,0.25z M2217.896,1284.146
				c64.451-580.158-353.591-1102.717-933.749-1167.181S181.43,470.545,116.966,1050.703
				c-64.463,580.158,353.591,1102.729,933.737,1167.18C1630.861,2282.347,2153.433,1864.292,2217.896,1284.146z"/>
			<path d="M1533.076,483.635l431.951,748.488l-543.055,672.03l-569.188-148.725l-492.429-651.39l593.236-564.96l39.078-3.83
				l540.273-52.963L1533.076,483.635z M892.007,1140.708l616.081-631.688l-543.862,53.312l-571.174,543.958L892.007,1140.708z"/>
		</g>
		<g>
		</g>
	</g>
</g>
</svg>
