<?xml version="1.0" encoding="utf-8"?>
<!-- Generator: Adobe Illustrator 13.0.0, SVG Export Plug-In . SVG Version: 6.00 Build 14948)  -->
<!DOCTYPE svg PUBLIC "-//W3C//DTD SVG 1.1//EN" "http://www.w3.org/Graphics/SVG/1.1/DTD/svg11.dtd">
<svg version="1.1" id="Default" xmlns="http://www.w3.org/2000/svg" xmlns:xlink="http://www.w3.org/1999/xlink" x="0px" y="0px"
	 width="1223.935px" height="1223.935px" viewBox="0 0 1223.935 1223.935" enable-background="new 0 0 1223.935 1223.935"
	 xml:space="preserve">
<g>
	<g id="XMLID_1_">
		<g>
			<path d="M611.996,0.25c337.822,0,611.689,273.867,611.689,611.689c0,337.879-273.867,611.746-611.689,611.746
				c-337.879,0-611.746-273.867-611.746-611.746C0.25,274.117,274.117,0.25,611.996,0.25z M1060.533,938.184
				c180.176-247.705,125.414-594.607-122.292-774.783C690.479-16.774,343.577,37.988,163.401,285.694
				C-16.774,533.456,37.987,880.358,285.75,1060.534C533.456,1240.709,880.358,1185.947,1060.533,938.184z"/>
			<path d="M803.691,252.382l225.29,393.266l-285.16,351.781l-295.998-78.142L188.995,578.23l300.652-285.84l9.25-8.796l25.48-2.61
				L803.691,252.382z M467.118,598.546l328.061-337.425l-292.821,29.963L199.55,579.025L467.118,598.546z"/>
		</g>
		<g>
		</g>
	</g>
</g>
</svg>
